<svg preserveAspectRatio="none" overflow="visible" style="display: block;" width="24" height="24" viewBox="0 0 24 24" fill="none" xmlns="http://www.w3.org/2000/svg">
<g id="Frame 83">
<g clip-path="url(#clip0_0_102)">
<path id="Subtract" d="M24 24H0V22.9141L1.12109 22.7969C1.11316 22.7213 1.1608 22.4733 1.58301 22.083C1.97568 21.7201 2.57347 21.3518 3.29199 21.0488C4.75726 20.431 6.47293 20.1871 7.63281 20.584C9.32535 21.1631 11.4424 22.0342 13.4365 22.3623C15.4642 22.6958 17.5861 22.5093 19.1992 20.7832C20.7277 19.1475 21.4848 16.599 21.8418 14.1807C22.2029 11.7339 22.1745 9.27254 22.0225 7.67383C21.8905 6.28484 22.265 4.81074 23.002 3.81836C23.2854 3.43678 23.6183 3.13026 24 2.92188V24ZM24 1.2998C23.105 1.58071 22.3585 2.16847 21.7969 2.9248C20.8097 4.25458 20.367 6.11033 20.5293 7.81641C20.6716 9.31316 20.6994 11.6516 20.3584 13.9619C20.0131 16.3008 19.3102 18.4672 18.1035 19.7588C16.9814 20.9596 15.4757 21.1782 13.6797 20.8828C11.8498 20.5818 9.94474 19.7903 8.11719 19.165C6.46109 18.5988 4.33501 18.9804 2.70898 19.666C1.88213 20.0147 1.12153 20.4675 0.56543 20.9814C0.361007 21.1704 0.162403 21.3897 0 21.6338V14.918C1.10975 14.0996 2.43372 13.6706 3.75879 13.9482C4.7624 14.1586 5.78262 14.5931 6.81543 15.1025C7.82022 15.5982 8.8975 16.1986 9.8877 16.6641C11.885 17.603 13.9606 18.218 15.7773 16.8066C17.2435 15.6674 17.912 14.2819 18.0869 12.8145C18.2597 11.364 17.9495 9.85044 17.5029 8.43555C17.059 7.02937 16.4566 5.65388 16.0381 4.53809C15.8251 3.97027 15.6578 3.46828 15.5674 3.03906C15.4756 2.60293 15.4728 2.28704 15.542 2.07031C15.8754 1.02576 16.3131 0.390393 16.7803 0H24V1.2998ZM15.751 0C15.3879 0.466486 15.075 1.06923 14.8281 1.84277C14.7 2.24468 14.733 2.71373 14.834 3.19336C14.9364 3.67993 15.1188 4.22532 15.335 4.80176C15.7749 5.97484 16.3499 7.27691 16.7871 8.66211C17.2216 10.0388 17.4961 11.432 17.3418 12.7266C17.1894 14.0043 16.6185 15.2045 15.3184 16.2148C13.8813 17.3315 12.2021 16.9227 10.208 15.9854C9.20249 15.5127 8.22417 14.9608 7.14746 14.4297C6.09893 13.9125 5.01087 13.444 3.91309 13.2139C2.50991 12.9198 1.14992 13.2949 0 14.0137V9.27539C0.376049 9.15428 0.735755 9.15202 1.09473 9.28223C2.61939 9.83585 4.59186 10.8263 6.49023 11.6826C7.41954 12.1018 8.32777 12.4873 9.11621 12.7441C9.51087 12.8727 9.89297 12.9745 10.2432 13.0312C10.5842 13.0864 10.9471 13.107 11.2822 13.0322C12.0716 12.856 12.727 12.5393 13.2148 12.0723C13.7091 11.5989 13.9918 11.0087 14.0879 10.3633C14.2743 9.11087 13.7593 7.69752 12.9004 6.38477C12.0961 5.15553 11.1876 3.61646 10.4854 2.10156C10.1428 1.36267 9.86231 0.651426 9.66211 0H15.751ZM8.09961 0C8.33587 0.892585 8.7053 1.8281 9.12402 2.73145C9.86622 4.3326 10.8158 5.93693 11.6455 7.20508C12.4207 8.38984 12.7118 9.42116 12.6045 10.1426C12.5537 10.4837 12.4141 10.7629 12.1777 10.9893C11.9346 11.222 11.5495 11.4368 10.9561 11.5693C10.8867 11.5848 10.738 11.5921 10.4824 11.5508C10.2357 11.5108 9.93403 11.4323 9.58105 11.3174C8.87389 11.087 8.02641 10.7304 7.10645 10.3154C5.30532 9.50298 3.20066 8.45192 1.60645 7.87305C1.04943 7.6709 0.509308 7.64246 0 7.73242V0H8.09961ZM7.04004 3.45117C6.04677 2.38729 4.50626 2.15407 3.48047 2.9541C2.38658 3.80778 2.59047 5.70973 4.12402 6.75C5.65775 7.79032 6.40575 8.72758 7.5 7.87402C8.59352 7.02022 8.20694 4.92782 7.23047 3.67578L7.04004 3.45117ZM3.94238 3.54492C4.63764 3.00308 5.85643 3.13443 6.63867 4.13672C7.04202 4.6538 7.32832 5.35787 7.39551 6.00195C7.46438 6.66327 7.29471 7.08282 7.03809 7.2832C6.85289 7.42758 6.74099 7.452 6.67871 7.45605C6.60924 7.46046 6.50066 7.44572 6.3125 7.35156C6.11684 7.25362 5.89037 7.09931 5.58691 6.87793C5.29809 6.66722 4.94325 6.39844 4.5459 6.12891C3.9426 5.7197 3.63205 5.16456 3.55859 4.67188C3.48506 4.17767 3.64508 3.77683 3.94238 3.54492Z" fill="#F4EDE0"/>
</g>
</g>
<defs>
<clipPath id="clip0_0_102">
<rect width="24" height="24" rx="7.5" fill="white"/>
</clipPath>
</defs>
</svg>
